<svg width="158" height="60" viewBox="0 0 158 60" fill="none" xmlns="http://www.w3.org/2000/svg">
<path d="M10.9174 39.9231C9.67787 39.2066 8.71543 38.1873 8.02933 36.8661C7.34288 35.5449 7 34.004 7 32.2421C7 30.4803 7.34273 28.9393 8.02933 27.6182C8.71528 26.297 9.67787 25.2783 10.9174 24.5611C12.1564 23.8445 13.575 23.4858 15.1727 23.4858C16.299 23.4858 17.3436 23.7061 18.3066 24.1464C19.2692 24.5871 20.0165 25.1757 20.5494 25.9131V19H24.6358V40.7529H20.5494V38.5712C20.0165 39.3085 19.2743 39.8977 18.322 40.3378C17.3695 40.7783 16.3297 40.9986 15.2035 40.9986C13.5851 40.9986 12.1566 40.6406 10.9174 39.9231ZM19.2435 36.0365C20.1139 35.0639 20.5493 33.7988 20.5493 32.242C20.5493 30.6852 20.1139 29.4153 19.2435 28.4323C18.3727 27.4492 17.2411 26.9575 15.8485 26.9575C14.4558 26.9575 13.3186 27.4492 12.4381 28.4323C11.5573 29.4154 11.1169 30.6857 11.1169 32.242C11.1169 33.7983 11.5571 35.0639 12.4381 36.0365C13.3186 37.0096 14.4553 37.4962 15.8485 37.4962C17.2416 37.4962 18.3727 37.0096 19.2435 36.0365Z" fill="white"/>
<path d="M30.9148 39.8928C29.6138 39.1554 28.6105 38.1217 27.9039 36.7898C27.1971 35.4585 26.8438 33.943 26.8438 32.2427C26.8438 30.5633 27.2124 29.0581 27.9499 27.7263C28.6872 26.395 29.7012 25.3557 30.9916 24.6077C32.282 23.8603 33.7362 23.4863 35.3543 23.4863C36.9928 23.4863 38.4368 23.8396 39.6865 24.5464C40.9356 25.2531 41.8988 26.2207 42.5745 27.4498C43.2507 28.6786 43.5883 30.0718 43.5883 31.6281C43.5883 32.0995 43.5575 32.5806 43.4963 33.0721H30.8687C31.0118 34.506 31.4986 35.6175 32.3282 36.4057C33.1577 37.1944 34.2073 37.5887 35.4774 37.5887C36.5014 37.5887 37.341 37.3735 37.9968 36.9433C38.6521 36.5133 39.0722 35.9294 39.2564 35.1921H43.4351C43.107 36.8926 42.2369 38.2853 40.8234 39.3707C39.4101 40.4566 37.6281 40.9991 35.4774 40.9991C33.7362 40.9991 32.2154 40.6301 30.9148 39.8928ZM39.2563 30.0919C39.2357 29.0473 38.867 28.213 38.1503 27.588C37.4331 26.9634 36.5013 26.6509 35.3543 26.6509C34.2276 26.6509 33.2959 26.9428 32.5585 27.5266C31.8211 28.1103 31.319 28.9659 31.053 30.0921L39.2563 30.0919Z" fill="white"/>
<path d="M48.8941 39.9231C47.6545 39.2066 46.6919 38.1873 46.0058 36.8661C45.3196 35.5449 44.9766 34.004 44.9766 32.2421C44.9766 30.4803 45.3191 28.9393 46.0058 27.6182C46.6919 26.297 47.6545 25.2783 48.8941 24.5611C50.1331 23.8445 51.5517 23.4858 53.1492 23.4858C54.2754 23.4858 55.32 23.7061 56.2831 24.1464C57.2457 24.5871 57.993 25.1757 58.526 25.9131V19H62.6126V40.7529H58.526V38.5712C57.993 39.3085 57.2507 39.8977 56.2985 40.3378C55.3459 40.7783 54.3062 40.9986 53.18 40.9986C51.5616 40.9986 50.1331 40.6406 48.8941 39.9231ZM57.2204 36.0365C58.0905 35.0639 58.526 33.7988 58.526 32.242C58.526 30.6852 58.0905 29.4153 57.2204 28.4323C56.3492 27.4492 55.2176 26.9575 53.8249 26.9575C52.4322 26.9575 51.2951 27.4492 50.4145 28.4323C49.534 29.4154 49.0935 30.6857 49.0935 32.242C49.0935 33.7983 49.5335 35.0639 50.4145 36.0365C51.2951 37.0096 52.4317 37.4962 53.8249 37.4962C55.2181 37.4962 56.3492 37.0096 57.2204 36.0365Z" fill="white"/>
<path d="M66.6212 39.6628C65.5661 38.7718 65.0391 37.579 65.0391 36.0834C65.0391 34.4857 65.6228 33.2213 66.7902 32.2889C67.9577 31.3572 69.7805 30.7579 72.259 30.4915L76.0687 30.0615V29.7234C76.0687 28.7608 75.7509 28.0082 75.1165 27.4653C74.4816 26.9228 73.6418 26.6511 72.5971 26.6511C71.5933 26.6511 70.7634 26.9175 70.1081 27.4499C69.4523 27.9829 69.0739 28.7202 68.9715 29.6619H65.0391C65.1818 28.4743 65.5964 27.4143 66.2831 26.482C66.9692 25.5502 67.8602 24.8181 68.9561 24.2851C70.0514 23.7527 71.2651 23.4863 72.5971 23.4863C74.85 23.4863 76.6678 24.0753 78.0505 25.2531C79.4328 26.4311 80.1244 28.075 80.1244 30.1842V40.7532H76.0687V38.5103C75.6794 39.2685 75.0136 39.8726 74.0719 40.3231C73.1297 40.7736 72.085 40.9988 70.938 40.9988C69.1147 40.9988 67.6758 40.5538 66.6212 39.6628ZM69.8162 37.3277C70.2772 37.6864 70.8867 37.8654 71.6445 37.8654C72.9755 37.8654 74.046 37.4353 74.855 36.5749C75.6639 35.7148 76.0687 34.5473 76.0687 33.0724L72.3202 33.4719C71.2552 33.5948 70.4562 33.8665 69.9236 34.286C69.3911 34.7061 69.1251 35.2539 69.1251 35.9298C69.1251 36.5034 69.3553 36.9695 69.8162 37.3277Z" fill="white"/>
<path d="M82.9184 40.2766C82.4674 39.8366 82.2422 39.2886 82.2422 38.6328C82.2422 37.9984 82.4674 37.4609 82.9184 37.02C83.3684 36.5798 83.9213 36.3594 84.5771 36.3594C85.2329 36.3594 85.7853 36.5797 86.2363 37.02C86.6867 37.4609 86.9125 37.9984 86.9125 38.6328C86.9125 39.2886 86.6867 39.8366 86.2363 40.2766C85.7853 40.7176 85.2324 40.9374 84.5771 40.9374C83.9218 40.9374 83.3684 40.7176 82.9184 40.2766Z" fill="white"/>
<path d="M91.0481 39.4921C89.9931 38.5087 89.466 37.1368 89.466 35.375V27.0488H87.0078V23.7305H89.466V20.1973H93.5521V23.7305H97.2086V27.0488H93.5521V35.0063C93.5521 35.785 93.7465 36.3888 94.1358 36.819C94.5246 37.2492 95.0472 37.464 95.703 37.464C96.2146 37.464 96.7884 37.352 97.4234 37.1263V40.5671C96.6656 40.8331 95.9074 40.9664 95.1501 40.9664C93.47 40.9664 92.1032 40.4751 91.0481 39.4921Z" fill="white"/>
<path d="M102.165 39.8928C100.864 39.1554 99.8603 38.1217 99.1538 36.7898C98.4473 35.4585 98.0938 33.943 98.0938 32.2427C98.0938 30.5633 98.4622 29.0581 99.2 27.7263C99.9369 26.395 100.951 25.3557 102.241 24.6077C103.532 23.8603 104.986 23.4863 106.604 23.4863C108.243 23.4863 109.687 23.8396 110.936 24.5464C112.186 25.2531 113.149 26.2207 113.824 27.4498C114.501 28.6786 114.838 30.0718 114.838 31.6281C114.838 32.0995 114.807 32.5806 114.746 33.0721H102.119C102.262 34.506 102.749 35.6175 103.578 36.4057C104.408 37.1944 105.457 37.5887 106.727 37.5887C107.752 37.5887 108.591 37.3735 109.247 36.9433C109.902 36.5133 110.322 35.9294 110.507 35.1921H114.685C114.357 36.8926 113.486 38.2853 112.073 39.3707C110.66 40.4566 108.878 40.9991 106.727 40.9991C104.986 40.9991 103.465 40.6301 102.165 39.8928ZM110.506 30.0919C110.486 29.0473 110.117 28.213 109.4 27.588C108.683 26.9634 107.751 26.6509 106.604 26.6509C105.477 26.6509 104.546 26.9428 103.809 27.5266C103.071 28.1103 102.569 28.9659 102.303 30.0921L110.506 30.0919Z" fill="white"/>
<path d="M120.359 39.8774C119.048 39.13 118.023 38.0909 117.286 36.759C116.549 35.4279 116.18 33.9225 116.18 32.2427C116.18 30.5629 116.549 29.0581 117.286 27.7263C118.023 26.395 119.048 25.3557 120.359 24.6077C121.669 23.8603 123.155 23.4863 124.814 23.4863C127.005 23.4863 128.823 24.06 130.267 25.2071C131.711 26.3542 132.545 27.9213 132.771 29.9078H128.654C128.49 29.0273 128.055 28.3155 127.349 27.7725C126.641 27.2301 125.797 26.9582 124.814 26.9582C123.954 26.9582 123.18 27.1786 122.494 27.6189C121.808 28.0595 121.27 28.6788 120.881 29.4777C120.492 30.2765 120.297 31.1982 120.297 32.2428C120.297 33.2671 120.497 34.1786 120.896 34.9774C121.296 35.7763 121.838 36.396 122.525 36.8362C123.211 37.2768 123.973 37.4967 124.814 37.4967C125.858 37.4967 126.744 37.2254 127.471 36.6825C128.198 36.1401 128.633 35.4382 128.777 34.578H132.894C132.771 35.807 132.361 36.9083 131.665 37.8806C130.968 38.8541 130.026 39.6168 128.838 40.1697C127.65 40.7231 126.308 40.9996 124.814 40.9996C123.155 40.9996 121.669 40.6252 120.359 39.8774Z" fill="white"/>
<path d="M134.898 19H138.985V26.036C139.476 25.3192 140.224 24.7148 141.227 24.2232C142.231 23.7315 143.306 23.4858 144.454 23.4858C145.683 23.4858 146.778 23.7422 147.741 24.254C148.704 24.7663 149.462 25.483 150.015 26.4047C150.568 27.3265 150.844 28.3816 150.844 29.5692V40.7529H146.758V30.6138C146.758 29.5491 146.456 28.6936 145.851 28.0484C145.247 27.4031 144.433 27.0804 143.409 27.0804C142.057 27.0804 140.982 27.6027 140.183 28.6473C139.384 29.692 138.985 31.1874 138.985 33.1331V40.7529H134.898V19Z" fill="white"/>
</svg>
