<svg width="163" height="27" viewBox="0 0 163 27" fill="none" xmlns="http://www.w3.org/2000/svg">
<path fill-rule="evenodd" clip-rule="evenodd" d="M30.335 12.5192L30.3151 12.5306L26.7727 13.9753L26.6641 14.0253L25.8007 17.9698C25.7431 18.1047 25.5704 18.1368 25.4544 18.0245L22.8735 14.9727L22.8612 14.9633L8.30721 21.2084C8.28547 21.2179 8.26103 21.219 8.23848 21.2117C8.21593 21.2044 8.19683 21.1891 8.18477 21.1687C8.17271 21.1483 8.16852 21.1242 8.173 21.1009C8.17747 21.0776 8.1903 21.0568 8.20907 21.0423L20.7908 11.6246L19.1989 7.98968C19.1196 7.82454 19.2659 7.64808 19.4603 7.69715H19.4622L23.3179 8.64647L26.3112 5.98253C26.4405 5.88156 26.616 5.95422 26.649 6.11464L26.9416 10.1167L30.3935 12.137C30.5416 12.2314 30.5199 12.4503 30.335 12.5192ZM28.576 1.07741C24.1087 -0.675903 19.196 0.640496 16.165 4.00935L4.33725 16.6807C4.17777 16.8516 4.25232 17.0658 4.44577 17.0941L7.59758 17.2875C7.84953 17.3036 7.88068 17.5206 7.75423 17.6688L0.0492781 25.9786C-0.084721 26.122 0.0775878 26.3485 0.260657 26.2919L11.2599 22.8164C11.492 22.7362 11.6713 22.9438 11.5732 23.1259L10.1011 25.7266C10.0256 25.8748 10.1681 26.0777 10.3531 26.0645L26.2102 22.5324C29.999 21.9322 33.382 19.4032 34.8853 15.5738C37.15 9.82698 34.321 3.33746 28.576 1.07741Z" fill="white"/>
<path fill-rule="evenodd" clip-rule="evenodd" d="M71.082 20.3598H67.4688L70.2969 7.11843L74.2376 5.66992L71.083 20.3579" fill="white"/>
<path fill-rule="evenodd" clip-rule="evenodd" d="M63.3263 12.7756C62.461 12.7756 61.9637 13.4918 61.7617 14.3213C63.4726 14.3213 63.9906 13.7872 63.9906 13.3437C63.9906 13.0322 63.7123 12.7756 63.3263 12.7756ZM61.3569 16.6408C61.338 16.7314 61.3191 16.8993 61.3191 16.9899C61.3191 17.5797 61.723 17.7826 62.7931 17.7826C63.7491 17.7826 65.1108 17.542 65.9044 17.2674V19.9738C64.8918 20.3418 63.3065 20.5428 62.0354 20.5428C59.0534 20.5428 57.6172 19.7322 57.6172 17.0277C57.6172 14.3722 58.8505 10.2324 63.6037 10.2324C66.6215 10.2324 67.5227 11.596 67.5227 13.0332C67.5227 14.8922 65.9223 16.4747 61.3569 16.6408Z" fill="white"/>
<path fill-rule="evenodd" clip-rule="evenodd" d="M77.6491 9.7608C76.4177 9.7608 75.625 8.96907 75.625 7.88293C75.625 6.46461 76.6196 5.67383 77.8511 5.67383C79.1043 5.67383 79.8781 6.46461 79.8781 7.53283C79.8781 8.96907 78.9023 9.7608 77.6491 9.7608Z" fill="white"/>
<path fill-rule="evenodd" clip-rule="evenodd" d="M75.1128 10.5645H78.8308L76.9511 20.2124H73.1953L74.5183 13.4369" fill="white"/>
<path fill-rule="evenodd" clip-rule="evenodd" d="M89.541 10.5645C88.251 13.8059 86.8327 16.9719 85.0303 20.2124H80.4253C79.8374 17.1549 79.5779 13.9333 79.6534 10.5645H83.4101C83.3385 12.1348 83.3499 13.7079 83.4441 15.2771C83.4639 15.6828 83.5016 16.0679 83.5375 16.4576H83.5582C83.7224 16.0679 83.9055 15.6838 84.0725 15.2771C84.7161 13.6917 85.3049 11.9648 85.7494 10.5645H89.541Z" fill="white"/>
<path fill-rule="evenodd" clip-rule="evenodd" d="M94.5675 12.7756C93.7041 12.7756 93.204 13.4918 93.0001 14.3213C94.7148 14.3213 95.23 13.7872 95.23 13.3437C95.23 13.0322 94.9563 12.7756 94.5675 12.7756ZM92.5991 16.6408C92.5766 16.7559 92.5633 16.8727 92.5594 16.9899C92.5594 17.5797 92.9662 17.7826 94.0325 17.7826C94.9912 17.7826 96.3539 17.542 97.1456 17.2674V19.9738C96.1321 20.3418 94.5487 20.5428 93.2795 20.5428C90.2947 20.5428 88.8594 19.7322 88.8594 17.0277C88.8594 14.3722 90.0918 10.2324 94.8431 10.2324C97.8628 10.2324 98.764 11.596 98.764 13.0332C98.764 14.8922 97.1654 16.4747 92.5991 16.6408Z" fill="white"/>
<path fill-rule="evenodd" clip-rule="evenodd" d="M105.993 13.9712C105.697 13.9004 105.395 13.8625 105.09 13.8579C104.261 13.8579 103.598 14.6884 103.302 16.2171L102.532 20.2135H98.7734L100.654 10.5655H103.473L103.563 11.8517C104.428 10.7854 105.111 10.2324 106.16 10.2324C106.638 10.2324 106.896 10.2692 107.024 10.306L105.994 13.9702" fill="white"/>
<path fill-rule="evenodd" clip-rule="evenodd" d="M117.746 10.5645C116.087 14.8741 114.615 18.0212 113.141 20.1963C111.006 23.3821 109.126 24.1191 107.192 24.1191C106.621 24.1191 106.015 23.9681 105.719 23.8228L106.309 21.0419H107.599C108.243 21.0419 108.518 20.7824 108.942 20.2124C108.224 17.6173 107.873 13.9899 107.91 10.5645H111.686C111.613 12.1166 111.626 13.6716 111.723 15.2223C111.742 15.6451 111.776 16.0509 111.813 16.4576H111.832C111.999 16.0679 112.181 15.6838 112.348 15.2591C112.976 13.7241 113.523 12.157 113.986 10.5645H117.746Z" fill="white"/>
<path fill-rule="evenodd" clip-rule="evenodd" d="M132.178 20.2159H128.215L129.156 15.3532H125.803L124.862 20.2159H120.906L123.409 7.36328H127.369L126.468 11.9494H129.819L130.722 7.36328H134.679L132.177 20.2159" fill="white"/>
<path fill-rule="evenodd" clip-rule="evenodd" d="M139.974 12.7756C139.108 12.7756 138.613 13.4918 138.409 14.3213C140.122 14.3213 140.64 13.7872 140.64 13.3437C140.64 13.0322 140.361 12.7756 139.974 12.7756ZM138.003 16.6408C137.982 16.756 137.971 16.8728 137.969 16.9899C137.969 17.5797 138.374 17.7826 139.44 17.7826C140.398 17.7826 141.761 17.542 142.553 17.2674V19.9738C141.54 20.3418 139.956 20.5428 138.684 20.5428C135.702 20.5428 134.266 19.7322 134.266 17.0277C134.266 14.3722 135.499 10.2324 140.25 10.2324C143.27 10.2324 144.174 11.596 144.174 13.0332C144.174 14.8922 142.57 16.4747 138.003 16.6408Z" fill="white"/>
<path fill-rule="evenodd" clip-rule="evenodd" d="M151.395 13.9712C151.1 13.9002 150.798 13.8622 150.495 13.8579C149.667 13.8579 149.003 14.6884 148.708 16.2171L147.934 20.2135H144.18L146.056 10.5655H148.872L148.967 11.8517C149.831 10.7854 150.512 10.2324 151.56 10.2324C152.041 10.2324 152.298 10.2692 152.428 10.306L151.395 13.9702" fill="white"/>
<path fill-rule="evenodd" clip-rule="evenodd" d="M157.568 13.1974C156.058 13.1974 155.652 15.4999 155.652 16.5313C155.652 17.3589 156.001 17.5977 156.685 17.5977C158.173 17.5977 158.561 15.2951 158.561 14.2477C158.561 13.438 158.231 13.1974 157.568 13.1974ZM156.166 20.5428C153.239 20.5428 151.805 19.2906 151.805 16.7871C151.805 14.0061 153.184 10.2324 158.047 10.2324C160.957 10.2324 162.41 11.5215 162.41 13.9901C162.41 16.8257 161.029 20.5428 156.166 20.5428Z" fill="white"/>
<path fill-rule="evenodd" clip-rule="evenodd" d="M49.5547 17.1584H48.8177L50.1426 10.3811H51.1759C52.7395 10.3811 53.3104 11.3059 53.3104 12.5732C53.3104 15.1352 51.8911 17.1584 49.5547 17.1584ZM53.0641 10.6217L55.5667 8.22012C54.59 7.63222 53.25 7.36328 51.5779 7.36328H46.7907L44.2891 20.2168H49.2801C55.0779 20.2168 57.3964 16.1657 57.3964 11.9504C57.3964 10.8548 57.1605 9.97815 56.7057 9.29872L53.0641 10.6217Z" fill="white"/>
</svg>
