<svg xmlns="http://www.w3.org/2000/svg" fill="none" viewBox="0 0 140 30" height="30" width="140">
  <path fill="#F8F3F4" d="M29.8601 0.433411H15.6719V14.2139H29.8601V0.433411Z"></path>
  <path fill="#F8F3F4" d="M0 0.433899H14.1883V14.2145H0V0.433899Z"></path>
  <path fill="#F8F3F4" d="M49.3474 17.1361L48.5141 19.4291H48.4447C48.3057 18.9121 48.0511 18.1253 47.6345 17.181L43.1675 6.27804H38.793V23.6554H41.6862V12.9323C41.6862 12.2578 41.6862 11.4935 41.663 10.5493C41.6466 10.214 41.6184 9.93539 41.5952 9.70551L41.595 9.70328C41.5857 9.61048 41.5771 9.52526 41.5705 9.44774H41.6399C41.7788 10.1222 41.9407 10.6168 42.0564 10.9315L47.4263 23.6104H49.4631L54.7865 10.8191C54.875 10.5956 54.9635 10.2013 55.052 9.80701C55.0792 9.68566 55.1066 9.56419 55.1337 9.44774H55.2031C55.1337 10.7292 55.0874 11.8757 55.0643 12.5726V23.588H58.1425V6.23309H53.9302L49.3474 17.1361Z"></path>
  <path fill="#F8F3F4" d="M61.0586 11.1336H64.0676V23.5878H61.0586V11.1336Z"></path>
  <path fill="#F8F3F4" d="M62.5866 5.87317C62.0773 5.87317 61.6608 6.05297 61.3135 6.36773C60.9663 6.68238 60.7812 7.08704 60.7812 7.5816C60.7812 8.05375 60.9663 8.45841 61.3135 8.77306C61.6608 9.08782 62.0773 9.2452 62.5866 9.2452C63.0957 9.2452 63.5354 9.06529 63.8596 8.77306C64.2067 8.45841 64.3919 8.05375 64.3919 7.5816C64.3919 7.10957 64.2067 6.70491 63.8596 6.36773C63.5586 6.05297 63.1189 5.87317 62.5866 5.87317Z"></path>
  <path fill="#F8F3F4" d="M74.7394 11.0215C74.1839 10.9091 73.6052 10.8416 73.0496 10.8416C71.684 10.8416 70.4342 11.134 69.3927 11.7184C68.3512 12.3029 67.518 13.1123 66.9855 14.1239C66.43 15.1579 66.1523 16.3494 66.1523 17.7208C66.1523 18.9122 66.43 19.9687 66.9624 20.9354C67.4948 21.8796 68.2354 22.6438 69.2307 23.1609C70.1796 23.678 71.2907 23.9478 72.5405 23.9478C73.9755 23.9478 75.2023 23.6555 76.1743 23.116L76.1975 23.0934V20.3959L76.0818 20.4858C75.642 20.8005 75.1327 21.0702 74.6236 21.2276C74.0912 21.4075 73.6052 21.4974 73.1886 21.4974C71.985 21.4974 71.036 21.1603 70.3648 20.4183C69.6704 19.6989 69.3233 18.7099 69.3233 17.4734C69.3233 16.1921 69.6704 15.1805 70.388 14.4385C71.1054 13.6967 72.0545 13.3145 73.2117 13.3145C74.1839 13.3145 75.1791 13.6292 76.0818 14.2587L76.1975 14.3486V11.4936L76.1743 11.4711L76.1401 11.4574C75.7552 11.3034 75.3237 11.1307 74.7394 11.0215Z"></path>
  <path fill="#F8F3F4" d="M84.6676 10.9315C83.9269 10.9315 83.2325 11.1563 82.6308 11.6284C82.1215 12.0331 81.7743 12.6175 81.4736 13.3143H81.4503V11.1338H78.4414V23.588H81.4503V17.226C81.4503 16.1469 81.6818 15.2477 82.1911 14.5958C82.7002 13.9214 83.3482 13.5841 84.1352 13.5841C84.3204 13.5841 84.5055 13.6141 84.7113 13.6475C84.8142 13.6641 84.9222 13.6816 85.0379 13.6966C85.3619 13.7865 85.5934 13.8764 85.7555 13.9888L85.8711 14.0787V11.1563L85.8017 11.1338C85.5934 10.9989 85.1768 10.9315 84.6676 10.9315Z"></path>
  <path fill="#F8F3F4" d="M92.86 10.864C90.7537 10.864 89.0641 11.4709 87.8837 12.6623C86.6802 13.8539 86.1016 15.4949 86.1016 17.5631C86.1016 19.4964 86.7032 21.07 87.8606 22.2166C89.0178 23.3406 90.5918 23.9251 92.5591 23.9251C94.6191 23.9251 96.2624 23.3182 97.4432 22.1042C98.6468 20.8902 99.2254 19.2717 99.2254 17.2709C99.2254 15.2925 98.6692 13.7191 97.5354 12.5724C96.4475 11.4259 94.8504 10.864 92.86 10.864ZM95.2671 20.4406C94.7117 21.1375 93.8321 21.4747 92.7443 21.4747C91.6563 21.4747 90.7769 21.1375 90.1519 20.3956C89.527 19.6988 89.2261 18.6871 89.2261 17.4057C89.2261 16.0794 89.5503 15.0678 90.1519 14.3484C90.7769 13.6291 91.6332 13.2693 92.7211 13.2693C93.7858 13.2693 94.6191 13.6066 95.2208 14.3034C95.8226 15.0003 96.1467 16.012 96.1467 17.3384C96.1004 18.6871 95.8458 19.7438 95.2671 20.4406Z" clip-rule="evenodd" fill-rule="evenodd"></path>
  <path fill="#F8F3F4" d="M105.939 16.3044C104.99 15.9223 104.388 15.6301 104.11 15.3828C103.878 15.1579 103.763 14.8432 103.763 14.4385C103.763 14.1013 103.902 13.7641 104.249 13.5393C104.597 13.3145 104.99 13.2022 105.568 13.2022C106.078 13.2022 106.61 13.2921 107.12 13.427C107.628 13.5618 108.091 13.7641 108.462 14.0338L108.577 14.1239V11.3812L108.508 11.3587C108.161 11.2239 107.698 11.0889 107.143 10.9766C106.587 10.8866 106.078 10.8416 105.662 10.8416C104.226 10.8416 103.046 11.1789 102.12 11.9207C101.194 12.6176 100.754 13.5618 100.754 14.6634C100.754 15.2478 100.847 15.7649 101.055 16.1921C101.264 16.6191 101.564 17.0237 101.981 17.361C102.397 17.6757 102.999 18.0354 103.833 18.3727C104.527 18.6649 105.06 18.8897 105.383 19.0696C105.707 19.2494 105.916 19.4517 106.078 19.609C106.194 19.7889 106.263 20.0136 106.263 20.3059C106.263 21.1377 105.615 21.5424 104.296 21.5424C103.786 21.5424 103.254 21.4525 102.629 21.2502C102.004 21.0478 101.426 20.7556 100.939 20.4183L100.824 20.3284V23.1835L100.893 23.2059C101.333 23.4082 101.865 23.5432 102.514 23.7004C103.161 23.8129 103.74 23.9028 104.249 23.9028C105.8 23.9028 107.073 23.5656 107.976 22.8237C108.902 22.1044 109.388 21.1827 109.388 19.9912C109.388 19.1595 109.156 18.4176 108.647 17.8556C107.976 17.3161 107.143 16.754 105.939 16.3044Z"></path>
  <path fill="#F8F3F4" d="M117.324 10.864C115.219 10.864 113.528 11.4709 112.349 12.6623C111.168 13.8539 110.566 15.4949 110.566 17.5631C110.566 19.4964 111.168 21.07 112.326 22.2166C113.483 23.3406 115.057 23.9251 117.023 23.9251C119.084 23.9251 120.728 23.3182 121.907 22.1042C123.111 20.8902 123.69 19.2717 123.69 17.2709C123.69 15.2925 123.134 13.7191 122 12.5724C120.912 11.4259 119.316 10.864 117.324 10.864ZM119.709 20.4406C119.153 21.1375 118.274 21.4747 117.185 21.4747C116.075 21.4747 115.219 21.1375 114.594 20.3956C113.969 19.6988 113.667 18.6871 113.667 17.4057C113.667 16.0794 113.992 15.0678 114.594 14.3484C115.219 13.6291 116.075 13.2693 117.162 13.2693C118.203 13.2693 119.061 13.6066 119.663 14.3034C120.264 15.0003 120.589 16.012 120.589 17.3384C120.589 18.6871 120.288 19.7438 119.709 20.4406Z" clip-rule="evenodd" fill-rule="evenodd"></path>
  <path fill="#F8F3F4" d="M139.775 13.5391V11.1337H136.743V7.44694L136.65 7.46936L133.78 8.30121L133.711 8.32363V11.1337H129.174V9.56003C129.174 8.84072 129.36 8.27868 129.683 7.91897C130.007 7.55926 130.493 7.37946 131.095 7.37946C131.511 7.37946 131.951 7.46936 132.437 7.67169L132.553 7.73917V5.19888L132.484 5.17635C132.068 5.0415 131.511 4.9516 130.794 4.9516C129.892 4.9516 129.104 5.15393 128.386 5.49111C127.67 5.87324 127.138 6.39033 126.743 7.08723C126.35 7.76159 126.142 8.52596 126.142 9.40265V11.1337H124.035V13.5166H126.142V23.5879H129.174V13.5391H133.711V19.946C133.711 22.5762 134.983 23.9025 137.53 23.9025C137.946 23.9025 138.386 23.8352 138.803 23.7677C139.243 23.6778 139.566 23.5654 139.751 23.4755L139.775 23.4529V21.0476L139.659 21.1375C139.474 21.2499 139.312 21.3398 139.034 21.4073C138.803 21.4747 138.594 21.4972 138.433 21.4972C137.83 21.4972 137.414 21.3624 137.113 21.0251C136.836 20.7103 136.697 20.1933 136.697 19.429V13.5391H139.775Z"></path>
  <path fill="#F8F3F4" d="M0 15.6528H14.1883V29.4334H0V15.6528Z"></path>
  <path fill="#F8F3F4" d="M29.8601 15.6528H15.6719V29.4334H29.8601V15.6528Z"></path>
</svg>
