<?xml version="1.0" encoding="UTF-8"?>
<svg id="Layer_1" xmlns="http://www.w3.org/2000/svg" version="1.1" viewBox="0 0 160 60">
  <!-- Generator: Adobe Illustrator 30.1.0, SVG Export Plug-In . SVG Version: 2.1.1 Build 136)  -->
  <defs>
    <style>
      .st0 {
        fill: #fff;
      }
    </style>
  </defs>
  <polygon class="st0" points="64.7 19.2 69.1 19.2 76.5 32.6 83.9 19.2 88.1 19.2 88.1 41.2 84.6 41.2 84.6 24.3 78.1 36 74.8 36 68.3 24.3 68.3 41.2 64.7 41.2 64.7 19.2"/>
  <path class="st0" d="M47.6,18.4c-2.9,0-5.1,2.2-7.1,4.9-2.8-3.5-5.1-4.9-7.9-4.9-5.7,0-10,7.4-10,15.2s2.4,8,6.3,8,4.9-1.3,8.5-7.7c0,0,1.5-2.7,2.6-4.5.4.6.8,1.2,1.2,1.9l1.7,2.9c3.3,5.6,5.2,7.5,8.5,7.5s6-3.1,6-8.1c0-8.2-4.4-15-9.8-15M34.6,32.1c-3,4.6-4,5.7-5.6,5.7s-2.7-1.5-2.7-4.1c0-5.7,2.8-11.5,6.2-11.5s3.3,1.1,5.7,4.4c-2.2,3.4-3.6,5.5-3.6,5.5M45.8,31.6l-2-3.4c-.6-.9-1.1-1.7-1.6-2.5,1.8-2.8,3.4-4.3,5.2-4.3,3.8,0,6.8,5.5,6.8,12.3s-.8,4.1-2.6,4.1-2.5-1.1-5.7-6.3"/>
  <path class="st0" d="M99.6,41.6c-1.6,0-3.1-.4-4.3-1.1-1.2-.7-2.2-1.7-2.9-3-.7-1.3-1-2.8-1-4.4s.3-3.2,1-4.5,1.6-2.3,2.8-3c1.2-.7,2.6-1.1,4.2-1.1s2.9.4,4,1.1,2,1.8,2.6,3.1c.6,1.3.9,2.9.9,4.7v1h-12.1c.2,1.3.8,2.4,1.6,3.2.9.8,2,1.2,3.3,1.2s2-.2,2.7-.5c.8-.3,1.5-.8,2.2-1.4l1.9,2.3c-1.9,1.7-4.2,2.6-6.9,2.6M102.2,28.5c-.7-.8-1.7-1.1-2.9-1.1s-2.2.4-2.9,1.2c-.8.8-1.3,1.8-1.5,3.1h8.6c0-1.3-.5-2.4-1.3-3.2"/>
  <path class="st0" d="M111.2,27.7h-3.3v-2.9h3.3v-4.8h3.4v4.8h5v2.9h-5v7.4c0,1.2.2,2.1.6,2.6s1.1.8,2.2.8h1.1c.3,0,.7,0,1,0v2.9c-.4,0-.8.2-1.3.3-.5,0-1,0-1.5,0-3.7,0-5.5-2-5.5-6.1v-7.8h0Z"/>
  <path class="st0" d="M137.4,41.2h-3.4v-2.3c-.6.9-1.4,1.5-2.3,2-.9.5-2,.7-3.1.7s-2.7-.4-3.8-1.1c-1.1-.7-2-1.8-2.6-3-.6-1.3-1-2.8-1-4.4s.3-3.2,1-4.4c.6-1.3,1.5-2.3,2.7-3,1.1-.7,2.5-1.1,4-1.1s2.1.2,3,.7c.9.4,1.6,1.1,2.2,1.8v-2.1h3.4v16.4-.2ZM134,30.5c-.4-.9-.9-1.7-1.7-2.2s-1.7-.8-2.7-.8c-1.5,0-2.6.5-3.5,1.5s-1.3,2.3-1.3,4,.4,3,1.3,4c.8,1,2,1.5,3.4,1.5s2-.3,2.8-.8,1.4-1.3,1.8-2.2v-4.9h-.1Z"/>
</svg>